<svg xmlns="http://www.w3.org/2000/svg" xmlns:xlink="http://www.w3.org/1999/xlink" sviewBox="0 0 64 64" version="1.1" style="max-width:100%" height="100%">
<g id="surface1" style="" fill="currentColor">
<path style="" d="M 18 4 C 14.691406 4 12 6.691406 12 10 C 12 13.308594 14.691406 16 18 16 C 21.308594 16 24 13.308594 24 10 C 24 6.691406 21.308594 4 18 4 Z M 48 4 C 44.691406 4 42 6.691406 42 10 C 42 13.308594 44.691406 16 48 16 C 51.308594 16 54 13.308594 54 10 C 54 6.691406 51.308594 4 48 4 Z M 18 5.757813 C 20.339844 5.757813 22.238281 7.660156 22.238281 10 C 22.238281 12.339844 20.339844 14.238281 18 14.238281 C 15.660156 14.238281 13.761719 12.339844 13.761719 10 C 13.761719 7.660156 15.660156 5.757813 18 5.757813 Z M 48 5.757813 C 50.339844 5.757813 52.238281 7.660156 52.238281 10 C 52.238281 12.339844 50.339844 14.238281 48 14.238281 C 45.660156 14.238281 43.761719 12.339844 43.761719 10 C 43.761719 7.660156 45.660156 5.757813 48 5.757813 Z M 28 8 C 27.449219 8 27 8.449219 27 9 L 27 11 C 27 11.550781 27.449219 12 28 12 C 28.550781 12 29 11.550781 29 11 L 29 9 C 29 8.449219 28.550781 8 28 8 Z M 33 8 C 32.449219 8 32 8.449219 32 9 L 32 11 C 32 11.550781 32.449219 12 33 12 C 33.550781 12 34 11.550781 34 11 L 34 9 C 34 8.449219 33.550781 8 33 8 Z M 38 8 C 37.449219 8 37 8.449219 37 9 L 37 11 C 37 11.550781 37.449219 12 38 12 C 38.550781 12 39 11.550781 39 11 L 39 9 C 39 8.449219 38.550781 8 38 8 Z M 48.105469 16.40625 C 43.21875 16.363281 38.71875 19.609375 36.996094 24.355469 L 36.730469 25.09375 C 36.433594 25.90625 35.882813 26.601563 35.160156 27.078125 L 33.515625 28.15625 L 30.640625 26.742188 C 29.960938 26.40625 29.390625 25.886719 28.996094 25.242188 L 27.40625 22.652344 C 24.679688 18.199219 19.476563 15.675781 14.363281 16.746094 C 14.066406 16.808594 13.769531 16.882813 13.472656 16.96875 L 13.082031 17.078125 C 10.691406 17.761719 8.601563 19.238281 7.15625 21.261719 L 5.367188 23.761719 C 4.4375 25.0625 4.1875 26.730469 4.695313 28.25 L 6.367188 33.265625 C 6.894531 34.851563 8.34375 35.921875 10.003906 35.988281 L 10.003906 36.902344 L 8.144531 55.816406 C 8.09375 56.921875 8.484375 57.964844 9.25 58.765625 C 10.011719 59.5625 11.039063 60 12.144531 60 C 13.984375 60 15.542969 58.757813 16.003906 57.089844 C 16.480469 58.777344 18.027344 60 19.859375 60 C 20.960938 60 21.988281 59.5625 22.75 58.765625 C 23.515625 57.964844 23.90625 56.921875 23.859375 55.871094 L 24 37 L 24 30.957031 C 25.246094 32.292969 26.789063 33.316406 28.535156 33.898438 L 31.410156 34.859375 C 32.046875 35.070313 32.707031 35.074219 33.332031 34.921875 C 34.320313 35.335938 35.472656 35.308594 36.464844 34.746094 L 38.347656 33.667969 C 39.34375 33.097656 40.234375 32.382813 41 31.546875 L 41 36.953125 L 40.152344 55.683594 C 40.105469 56.644531 40.347656 57.617188 40.925781 58.386719 C 41.707031 59.421875 42.871094 60 44.144531 60 C 45.976563 60 47.527344 58.769531 48 57.074219 C 48.472656 58.769531 50.023438 60 51.859375 60 C 53.128906 60 54.292969 59.417969 55.074219 58.382813 C 55.652344 57.613281 55.894531 56.644531 55.847656 55.683594 L 55.125 39.71875 C 55.707031 39.96875 56.375 40.066406 57.066406 39.953125 C 58.785156 39.683594 60 38.105469 60 36.363281 L 60 27.535156 C 60 25.105469 59.257813 22.695313 57.726563 20.808594 C 56.296875 19.046875 54.390625 17.785156 52.207031 17.160156 L 51.089844 16.84375 C 50.800781 16.757813 50.507813 16.6875 50.214844 16.628906 C 49.507813 16.484375 48.800781 16.410156 48.105469 16.40625 Z M 47.984375 18.402344 C 48.558594 18.402344 49.140625 18.453125 49.71875 18.566406 C 49.996094 18.621094 50.265625 18.6875 50.535156 18.765625 L 51.65625 19.085938 C 53.46875 19.605469 55.046875 20.65625 56.21875 22.128906 C 57.421875 23.636719 58 25.550781 58 27.484375 L 58 36.5 C 58 37.328125 57.328125 38 56.5 38 C 55.671875 38 55 37.328125 55 36.5 L 55 25.667969 C 55 25.117188 54.550781 24.667969 54 24.667969 C 53.449219 24.667969 53 25.117188 53 25.667969 L 53 36.5 C 53 36.527344 53 36.554688 53 36.582031 L 53.859375 55.90625 C 53.882813 56.460938 53.6875 56.984375 53.308594 57.382813 C 52.886719 57.820313 52.308594 58.042969 51.683594 57.992188 C 50.667969 57.914063 49.902344 57.011719 49.851563 55.996094 L 49 38.949219 C 48.972656 38.417969 48.53125 38 48 38 C 47.46875 38 47.027344 38.417969 47 38.949219 L 46.152344 55.964844 C 46.097656 56.980469 45.351563 57.894531 44.335938 57.988281 C 43.710938 58.050781 43.117188 57.828125 42.691406 57.382813 C 42.308594 56.984375 42.117188 56.460938 42.140625 55.90625 L 43 37 L 43 25.625 C 43 25.074219 42.550781 24.625 42 24.625 C 41.449219 24.625 41 25.074219 41 25.625 L 41 28.128906 C 40.949219 28.179688 40.90625 28.234375 40.867188 28.296875 C 39.960938 29.703125 38.9375 31.027344 37.484375 31.859375 L 35.722656 32.863281 C 35.890625 32.453125 36 32.011719 36 31.546875 C 36 30.75 35.730469 30.003906 35.261719 29.402344 L 36.257813 28.75 C 37.34375 28.035156 38.164063 26.996094 38.609375 25.777344 L 38.890625 25 C 40.304688 21.101563 43.976563 18.40625 47.984375 18.402344 Z M 16.476563 18.5 C 20.175781 18.394531 23.710938 20.441406 25.6875 23.671875 L 27.289063 26.285156 C 27.882813 27.253906 28.738281 28.035156 29.757813 28.535156 L 33.171875 30.214844 C 33.683594 30.464844 34 30.976563 34 31.546875 C 34 32.03125 33.777344 32.472656 33.382813 32.753906 C 32.988281 33.039063 32.5 33.113281 32.042969 32.960938 L 29.167969 32 C 27.492188 31.445313 26.019531 30.40625 24.933594 29.015625 L 21.785156 25.007813 C 21.445313 24.574219 20.816406 24.496094 20.382813 24.839844 C 19.949219 25.179688 19.871094 25.808594 20.214844 26.242188 L 22.015625 28.542969 C 22.015625 28.570313 22 28.597656 22 28.625 L 22 36.992188 L 21.859375 55.910156 C 21.882813 56.460938 21.6875 56.984375 21.308594 57.382813 C 20.925781 57.78125 20.410156 58 19.855469 58 C 18.789063 58 17.910156 57.167969 17.859375 56.15625 L 18 39.007813 C 18.003906 38.476563 17.589844 38.03125 17.058594 38 C 16.515625 37.976563 16.0625 38.363281 16.003906 38.890625 L 14.144531 56.097656 C 14.089844 57.164063 13.214844 58 12.140625 58 C 11.589844 58 11.074219 57.78125 10.691406 57.382813 C 10.3125 56.984375 10.117188 56.460938 10.140625 55.964844 L 12 37 L 12 25.667969 C 12 25.117188 11.550781 24.667969 11 24.667969 C 10.449219 24.667969 10 25.117188 10 25.667969 L 10.003906 33.972656 C 9.210938 33.910156 8.519531 33.398438 8.265625 32.632813 L 6.59375 27.613281 C 6.289063 26.707031 6.441406 25.703125 7 24.921875 L 8.78125 22.421875 C 9.964844 20.769531 11.675781 19.5625 13.632813 19 L 14.019531 18.890625 C 14.308594 18.808594 14.59375 18.738281 14.886719 18.683594 C 15.414063 18.574219 15.949219 18.515625 16.476563 18.5 Z " fill="currentColor"></path>
</g>
</svg>