<svg xmlns="http://www.w3.org/2000/svg" sviewBox="0 0 64 64" style="max-width:100%" height="100%">
    <path d="M 20 4 C 14.166 4 9.0488281 9.4748437 9.0488281 15.714844 C 9.0488281 19.420561 9.9589821 22.797756 11.591797 25.462891 L 5.5996094 28.423828 C 2.1466094 30.127828 0 33.580641 0 37.431641 L 0 45.189453 C 0 46.739453 1.2605469 48 2.8105469 48 L 10.005859 48 C 10.004899 48.06009 10 48.119418 10 48.179688 L 10 57 C 10 58.654 11.346 60 13 60 L 51 60 C 52.654 60 54 58.654 54 57 L 54 48.179688 C 54 48.119418 53.995101 48.06009 53.994141 48 L 61.189453 48 C 62.739453 48 64 46.739453 64 45.189453 L 64 37.431641 C 64 33.580641 61.853391 30.126875 58.400391 28.421875 L 52.394531 25.455078 C 53.894663 23.026249 54.953125 19.783647 54.953125 15.714844 C 54.952125 9.4738437 49.834 4 44 4 C 39.64174 4 35.699558 7.0610447 33.978516 11.208984 C 33.330373 11.081164 32.671037 11 32 11 C 31.333629 11 30.678988 11.080941 30.035156 11.207031 C 28.312059 7.0587831 24.359853 4 20 4 z M 20 6 C 23.420873 6 26.607987 8.4739408 28.083984 11.785156 C 23.483363 13.632179 20 18.546056 20 24 C 20 28.349812 21.141583 32.080641 22.894531 34.935547 L 16.080078 38.341797 C 12.993646 39.885424 10.874613 42.711202 10.21875 46 L 2.8105469 46 C 2.3635469 46 2 45.636453 2 45.189453 L 2 37.431641 C 2 34.346641 3.718375 31.580844 6.484375 30.214844 L 12.765625 27.113281 C 13.552479 28.057822 14.451327 28.870131 15.451172 29.525391 C 15.913172 29.829391 16.534891 29.701281 16.837891 29.238281 C 17.140891 28.776281 17.010828 28.156516 16.548828 27.853516 C 13.889828 26.110516 11.048828 22.004891 11.048828 15.712891 C 11.047828 10.629891 15.315 6 20 6 z M 44 6 C 48.685 6 52.951172 10.630844 52.951172 15.714844 C 52.951172 22.376844 49.877 26.496859 47 28.130859 C 46.52 28.403859 46.351047 29.012188 46.623047 29.492188 C 46.807047 29.817187 47.145141 30 47.494141 30 C 47.661141 30 47.832281 29.957141 47.988281 29.869141 C 49.084226 29.246467 50.201996 28.321023 51.214844 27.103516 L 57.515625 30.214844 C 60.282625 31.580844 62 34.346641 62 37.431641 L 62 45.189453 C 62 45.635453 61.636453 46 61.189453 46 L 53.78125 46 C 53.125413 42.711202 51.005531 39.885424 47.919922 38.341797 L 41.105469 34.935547 C 42.858417 32.080641 44 28.349812 44 24 C 44 18.546056 40.516637 13.632179 35.916016 11.785156 C 37.391998 8.4737056 40.578875 6 44 6 z M 32 13 C 37.233 13 42 18.243 42 24 C 42 33.787 36.192 39 32 39 C 27.808 39 22 33.787 22 24 C 22 18.243 26.767 13 32 13 z M 24.058594 36.589844 C 26.304687 39.389956 29.197512 41 32 41 C 34.802488 41 37.695313 39.389956 39.941406 36.589844 L 47.025391 40.130859 C 50.094391 41.665859 52 44.748688 52 48.179688 L 52 57 C 52 57.551 51.551 58 51 58 L 13 58 C 12.449 58 12 57.551 12 57 L 12 48.179688 C 12 44.749688 13.906563 41.665859 16.976562 40.130859 L 24.058594 36.589844 z M 17 52 C 16.448 52 16 52.448 16 53 L 16 55 C 16 55.552 16.448 56 17 56 C 17.552 56 18 55.552 18 55 L 18 53 C 18 52.448 17.552 52 17 52 z M 22 52 C 21.448 52 21 52.448 21 53 L 21 55 C 21 55.552 21.448 56 22 56 C 22.552 56 23 55.552 23 55 L 23 53 C 23 52.448 22.552 52 22 52 z M 27 52 C 26.448 52 26 52.448 26 53 L 26 55 C 26 55.552 26.448 56 27 56 C 27.552 56 28 55.552 28 55 L 28 53 C 28 52.448 27.552 52 27 52 z M 32 52 C 31.448 52 31 52.448 31 53 L 31 55 C 31 55.552 31.448 56 32 56 C 32.552 56 33 55.552 33 55 L 33 53 C 33 52.448 32.552 52 32 52 z M 37 52 C 36.448 52 36 52.448 36 53 L 36 55 C 36 55.552 36.448 56 37 56 C 37.552 56 38 55.552 38 55 L 38 53 C 38 52.448 37.552 52 37 52 z M 42 52 C 41.448 52 41 52.448 41 53 L 41 55 C 41 55.552 41.448 56 42 56 C 42.552 56 43 55.552 43 55 L 43 53 C 43 52.448 42.552 52 42 52 z M 47 52 C 46.448 52 46 52.448 46 53 L 46 55 C 46 55.552 46.448 56 47 56 C 47.552 56 48 55.552 48 55 L 48 53 C 48 52.448 47.552 52 47 52 z" style="" fill="currentColor"></path>
</svg>